<svg width="30" height="22" viewBox="0 0 30 22" fill="none" xmlns="http://www.w3.org/2000/svg">
<path d="M29.1239 3.9724C29.1255 5.27481 29.1278 6.57723 29.1294 7.87964C26.3159 7.88041 23.5023 7.88118 20.6888 7.88272C20.0332 7.88272 19.5867 8.31327 19.5867 8.95756C19.5859 13.1762 19.5875 17.3948 19.5882 21.6134C19.4617 21.6173 19.3343 21.625 19.2078 21.625C16.1262 21.6257 13.0453 21.6257 9.96374 21.625C9.83717 21.625 9.70982 21.6173 9.58325 21.6134C9.58325 14.4163 9.58325 7.21921 9.58325 0.0213255C9.70982 0.0174813 9.83717 0.00979294 9.96374 0.00979294C13.0453 0.0090241 16.1262 0.0090241 19.2078 0.00979294C19.3343 0.00979294 19.4617 0.0174813 19.5882 0.0213255C19.5875 0.912412 19.5867 1.80427 19.5859 2.69535C19.5859 3.58183 19.9829 3.97009 20.8916 3.97009C23.6352 3.97086 26.3796 3.97163 29.1239 3.9724Z" fill="#F8C74E"/>
<path d="M9.58241 0.020791C9.58241 7.21791 9.58241 14.415 9.58241 21.6129C9.25066 21.6437 8.91892 21.6344 8.58718 21.6183C8.58639 20.7649 8.57303 19.9115 8.59189 19.0588C8.59818 18.7705 8.52429 18.689 8.22006 18.6905C5.50479 18.7021 2.78952 18.6959 0.0750394 18.6952C0.0152941 18.3515 -0.0413067 18.0078 0.046739 17.6595C2.80131 17.6611 5.55589 17.6595 8.31046 17.668C8.53608 17.6688 8.59032 17.5965 8.58875 17.3866C8.57932 16.2649 8.57932 15.1431 8.58875 14.0214C8.59032 13.8046 8.52193 13.7454 8.30417 13.7461C5.5496 13.7538 2.79502 13.7523 0.04045 13.7538C-0.00828957 13.4255 -0.0192953 13.098 0.0428084 12.7697C2.79738 12.7705 5.55196 12.7689 8.30653 12.7766C8.52822 12.7774 8.58953 12.712 8.58796 12.4991C8.57853 11.3773 8.57853 10.2556 8.58796 9.13386C8.58953 8.92012 8.52743 8.85554 8.30653 8.85631C5.55196 8.864 2.79738 8.86246 0.0428084 8.86323C0.00979125 8.5357 0.0121496 8.20741 0.04045 7.87911C2.79502 7.87988 5.5496 7.87911 8.30417 7.8868C8.52193 7.88757 8.59032 7.82837 8.58875 7.61155C8.57853 6.48982 8.57932 5.36808 8.58875 4.24634C8.59032 4.03721 8.53529 3.96494 8.31046 3.96494C5.55589 3.9734 2.80131 3.97186 0.046739 3.9734C-0.0413067 3.62588 0.0152941 3.28221 0.0742533 2.93777C2.79895 2.937 5.52444 2.93239 8.24914 2.94162C8.52429 2.94238 8.59504 2.86473 8.59032 2.60333C8.57539 1.74069 8.5856 0.878048 8.58718 0.0154091C8.91892 -0.000736581 9.25066 -0.0107315 9.58241 0.020791Z" fill="#E9AA42"/>
<path d="M19.5883 21.6118C19.5875 17.3931 19.5859 13.1745 19.5867 8.95587C19.5867 8.31235 20.0332 7.8818 20.6888 7.88104C23.5024 7.88027 26.3159 7.8795 29.1294 7.87796C29.157 8.20549 29.1601 8.53378 29.1271 8.86131C26.3725 8.86054 23.6179 8.86208 20.8634 8.85439C20.6417 8.85362 20.5804 8.91897 20.5819 9.13271C20.5914 10.2544 20.5914 11.3762 20.5819 12.4979C20.5804 12.7117 20.6425 12.7762 20.8634 12.7755C23.6179 12.7678 26.3725 12.7693 29.1271 12.7686C29.1868 13.0961 29.1829 13.4244 29.1294 13.7527C26.3749 13.7519 23.6203 13.7527 20.8657 13.745C20.648 13.7442 20.5796 13.8034 20.5811 14.0202C20.5914 15.142 20.5906 16.2637 20.5811 17.3854C20.5796 17.5946 20.6346 17.6668 20.8594 17.6668C23.614 17.6584 26.3686 17.6599 29.1232 17.6584C29.212 18.0059 29.1538 18.3496 29.0949 18.694C26.3702 18.6948 23.6455 18.6994 20.9208 18.6902C20.6456 18.6894 20.5756 18.7678 20.5796 19.0285C20.5945 19.8911 20.5843 20.7537 20.5827 21.6164C20.2518 21.6333 19.92 21.6433 19.5883 21.6118Z" fill="#E9AA42"/>
<path d="M0.0469994 3.97303C2.80157 3.97149 5.55615 3.97303 8.31072 3.96458C8.53634 3.96381 8.59137 4.03608 8.58901 4.24597C8.57958 5.36771 8.57958 6.48945 8.58901 7.61119C8.59058 7.828 8.52297 7.8872 8.30443 7.88643C5.54986 7.87874 2.79528 7.88028 0.0407104 7.87874C0.0438549 6.5771 0.0454272 5.27468 0.0469994 3.97303Z" fill="#F8C74E"/>
<path d="M0.0435791 8.86316C2.79815 8.86239 5.55273 8.86393 8.3073 8.85624C8.52899 8.85547 8.59109 8.92082 8.58874 9.13379C8.5793 10.2555 8.5793 11.3773 8.58874 12.499C8.59031 12.712 8.52899 12.7773 8.3073 12.7766C5.55273 12.7689 2.79815 12.7704 0.0435791 12.7696C0.0435791 11.468 0.0435791 10.1656 0.0435791 8.86316Z" fill="#F8C74E"/>
<path d="M29.1271 12.7704C26.3725 12.7712 23.6179 12.7696 20.8633 12.7773C20.6417 12.7781 20.5796 12.7127 20.5819 12.4998C20.5913 11.378 20.5913 10.2563 20.5819 9.13455C20.5803 8.92158 20.6417 8.85623 20.8633 8.85623C23.6179 8.86392 26.3725 8.86238 29.1271 8.86315C29.1271 10.1656 29.1271 11.468 29.1271 12.7704Z" fill="#F8C74E"/>
<path d="M0.0411377 13.7537C2.79571 13.7529 5.55029 13.7537 8.30486 13.746C8.52262 13.7452 8.59101 13.8044 8.58944 14.0213C8.57922 15.143 8.58 16.2647 8.58944 17.3865C8.59101 17.5956 8.53598 17.6686 8.31115 17.6679C5.55658 17.6594 2.802 17.6609 0.0474267 17.6594C0.0450683 16.3578 0.0434961 15.0553 0.0411377 13.7537Z" fill="#F8C74E"/>
<path d="M29.1239 17.6594C26.3694 17.6609 23.6148 17.6594 20.8602 17.6679C20.6346 17.6686 20.5796 17.5964 20.5819 17.3865C20.5914 16.2647 20.5914 15.143 20.5819 14.0213C20.5803 13.8044 20.648 13.7452 20.8665 13.746C23.6211 13.7537 26.3756 13.7522 29.1302 13.7537C29.1271 15.0553 29.1255 16.3578 29.1239 17.6594Z" fill="#F8C74E"/>
<path d="M20.5834 0.0152933C22.2964 0.0137556 24.0093 -0.0100784 25.7215 0.016831C27.4329 0.0437404 28.8267 1.27619 29.094 2.93766C26.3693 2.93689 23.6446 2.93227 20.9199 2.94227C20.6447 2.94304 20.5748 2.86462 20.5787 2.60398C20.5952 1.74057 20.5842 0.877932 20.5834 0.0152933Z" fill="#F8C74F"/>
<path d="M20.5834 21.6171C20.5842 20.7545 20.5952 19.8919 20.5803 19.0292C20.5756 18.7686 20.6455 18.6894 20.9215 18.6909C23.6462 18.7002 26.3709 18.6956 29.0956 18.6948C28.8244 20.3601 27.4384 21.5872 25.7223 21.6164C24.0102 21.6441 22.2964 21.6187 20.5834 21.6171Z" fill="#F8C74F"/>
<path d="M8.58727 0.0152747C8.58648 0.877914 8.57547 1.74132 8.59041 2.60319C8.59513 2.8646 8.52437 2.94225 8.24923 2.94148C5.52453 2.93226 2.79983 2.93764 0.0743408 2.93841C0.343981 1.27617 1.73856 0.0437218 3.44838 0.0168124C5.16056 -0.0108658 6.8743 0.0129682 8.58727 0.0152747Z" fill="#F8C74F"/>
<path d="M0.0748291 18.6943C2.7901 18.6951 5.50537 18.7012 8.21985 18.6897C8.52329 18.6882 8.59797 18.7696 8.59168 19.058C8.57282 19.9106 8.58618 20.764 8.58697 21.6174C6.874 21.619 5.16104 21.6443 3.44808 21.6159C1.73591 21.5874 0.342111 20.3542 0.0748291 18.6943Z" fill="#F8C74F"/>
<path d="M20.5832 0.0153378C20.584 0.877977 20.595 1.74062 20.5793 2.60326C20.5746 2.86389 20.6445 2.94308 20.9205 2.94154C23.6452 2.93232 26.3699 2.93693 29.0946 2.93693C29.1543 3.2806 29.2117 3.62428 29.1229 3.97179C26.3785 3.97102 23.6349 3.97025 20.8906 3.96872C19.9826 3.96872 19.5848 3.58045 19.5848 2.69398C19.5848 1.80289 19.5864 0.911037 19.5872 0.0199509C19.9197 -0.0108028 20.2515 -0.000807837 20.5832 0.0153378Z" fill="#EAAB42"/>
</svg>
