<svg width="21" height="20" viewBox="0 0 21 20" fill="none" xmlns="http://www.w3.org/2000/svg">
<path d="M0.876221 5.47583H19.2238" stroke="#0056D2" stroke-width="1.2" stroke-linecap="round" stroke-linejoin="round"/>
<path d="M5.84248 14.8029H4.59035C3.5549 14.8029 2.56175 14.3921 1.82878 13.6608C1.09581 12.9294 0.682889 11.9371 0.680634 10.9017V5.47577C0.682889 4.44032 1.09581 3.44806 1.82878 2.71669C2.56175 1.98531 3.5549 1.57456 4.59035 1.57456H15.5614C16.074 1.57344 16.5818 1.67358 17.0557 1.86924C17.5295 2.06489 17.96 2.35222 18.3225 2.7147C18.685 3.07718 18.9723 3.5077 19.1679 3.98152C19.3636 4.45534 19.4637 4.96314 19.4626 5.47577V10.9017C19.4637 11.4143 19.3636 11.9221 19.1679 12.3959C18.9723 12.8697 18.685 13.3003 18.3225 13.6627C17.96 14.0252 17.5295 14.3126 17.0557 14.5082C16.5818 14.7039 16.074 14.804 15.5614 14.8029H14.2922" stroke="#0056D2" stroke-width="1.2" stroke-linecap="round" stroke-linejoin="round"/>
<path d="M12.9035 11.6937L7.19653 17.3922" stroke="#0056D2" stroke-width="1.2" stroke-linecap="round" stroke-linejoin="round"/>
<path d="M10.0499 18.7467C12.3738 18.7467 14.2577 16.8628 14.2577 14.5388C14.2577 12.2149 12.3738 10.331 10.0499 10.331C7.72596 10.331 5.84204 12.2149 5.84204 14.5388C5.84204 16.8628 7.72596 18.7467 10.0499 18.7467Z" stroke="#0056D2" stroke-width="1.2" stroke-linecap="round" stroke-linejoin="round"/>
</svg>
